<svg xmlns="http://www.w3.org/2000/svg" viewBox="0 0 90.22 90.22"><defs><style>.cls-1{fill:#b0dfdf;}.cls-2{fill:#fff;fill-rule:evenodd;}</style></defs><title>Asset 2</title><g id="Layer_2" data-name="Layer 2"><g id="Layer_17" data-name="Layer 17"><circle class="cls-1" cx="45.11" cy="45.11" r="45.11"/><path class="cls-2" d="M44.57,59.44h3a2.56,2.56,0,0,0,1.38-.6,2.22,2.22,0,0,0,.42-1.33s-.06-4.06,1.83-4.66,4.25,3.93,6.78,5.66a4.8,4.8,0,0,0,3.37,1l6.77-.09s3.54-.22,1.86-3c-.14-.23-1-2.06-5-5.82-4.24-3.94-3.67-3.3,1.44-10.11,3.11-4.15,4.36-6.68,4-7.77S67.71,32,67.71,32l-7.62,0a1.73,1.73,0,0,0-1,.17,2.12,2.12,0,0,0-.67.82A44.2,44.2,0,0,1,55.62,39c-3.39,5.76-4.75,6.07-5.3,5.71-1.29-.83-1-3.35-1-5.14,0-5.58.85-7.91-1.65-8.51a13,13,0,0,0-3.56-.35c-2.72,0-5,0-6.32.65-.87.42-1.54,1.37-1.13,1.42a3.42,3.42,0,0,1,2.25,1.13c.78,1.06.75,3.45.75,3.45s.45,6.57-1,7.39c-1,.56-2.44-.58-5.46-5.81a48.61,48.61,0,0,1-2.72-5.64,2.26,2.26,0,0,0-.63-.85,3.15,3.15,0,0,0-1.17-.47l-7.24,0s-1.09,0-1.49.5,0,1.29,0,1.29S25.58,47,32,53.72c5.89,6.13,12.57,5.73,12.57,5.73Z"/></g></g></svg>