<svg xmlns="http://www.w3.org/2000/svg" viewBox="0 0 90.22 90.22"><defs><style>.cls-1{fill:#b0dfdf;}.cls-2{fill:#fff;}</style></defs><title>Asset 6</title><g id="Layer_2" data-name="Layer 2"><g id="Layer_17" data-name="Layer 17"><circle class="cls-1" cx="45.11" cy="45.11" r="45.11"/><path class="cls-2" d="M33.85,60.12c0-.5-.09-.85-.11-1.19A2.78,2.78,0,0,0,32,56.1a2.1,2.1,0,0,1-1.46-2.39,2.27,2.27,0,0,0-1.4-2.46,14.58,14.58,0,0,1-1.46-.95c.41-.29.7-.52,1-.72Q44.6,39.75,60.48,29.91a2.19,2.19,0,0,1,2.33-.16A8.28,8.28,0,0,1,67.89,38,2.47,2.47,0,0,1,67,39.72Q50.77,49.82,34.51,59.81C34.37,59.9,34.2,60,33.85,60.12Z"/><path class="cls-2" d="M28.19,60.73c-1.7,0-3.41,0-5.13,0-.75,0-.92-.46-.61-1.08.77-1.49,1.56-3,2.34-4.43A5.62,5.62,0,0,1,28.19,60.73Z"/></g></g></svg>