<svg xmlns="http://www.w3.org/2000/svg" xmlns:xlink="http://www.w3.org/1999/xlink" viewBox="0 0 85.27 85.27"><defs><style>.cls-1{fill:none;}.cls-2{fill:#fff;}.cls-3{fill:#6a95c6;fill-rule:evenodd;}.cls-4{fill:#b0dfdf;}.cls-5{clip-path:url(#clip-path);}</style><clipPath id="clip-path"><circle class="cls-1" cx="42.64" cy="42.06" r="23.12"/></clipPath></defs><title>Asset 5</title><g id="Layer_2" data-name="Layer 2"><g id="Layer_17" data-name="Layer 17"><circle class="cls-2" cx="42.64" cy="42.64" r="42.64"/><path class="cls-3" d="M42.12,56.18H45a2.42,2.42,0,0,0,1.31-.57,2.1,2.1,0,0,0,.39-1.26s-.06-3.84,1.73-4.41,4,3.71,6.41,5.35a4.54,4.54,0,0,0,3.18,1l6.4-.09s3.35-.21,1.76-2.84c-.13-.21-.92-1.95-4.76-5.5-4-3.72-3.47-3.12,1.36-9.56,2.94-3.92,4.12-6.31,3.75-7.34S64,30.23,64,30.23l-7.2,0a1.63,1.63,0,0,0-.93.16,2,2,0,0,0-.64.77,41.77,41.77,0,0,1-2.66,5.61c-3.21,5.44-4.49,5.73-5,5.39-1.22-.79-.91-3.17-.91-4.85,0-5.28.8-7.48-1.56-8A12.31,12.31,0,0,0,41.72,29c-2.57,0-4.74,0-6,.61-.82.4-1.45,1.29-1.07,1.35A3.23,3.23,0,0,1,36.8,32a7,7,0,0,1,.71,3.26s.42,6.21-1,7c-1,.53-2.3-.55-5.16-5.49a46,46,0,0,1-2.57-5.33,2.14,2.14,0,0,0-.59-.8,3,3,0,0,0-1.11-.45l-6.84,0s-1,0-1.4.48,0,1.22,0,1.22,5.36,12.53,11.42,18.85c5.56,5.79,11.88,5.41,11.88,5.41Z"/><circle class="cls-4" cx="42.64" cy="42.64" r="42.64"/><g class="cls-5"><circle class="cls-2" cx="42.76" cy="32.73" r="10.55"/><path class="cls-2" d="M62.84,66.73H22.43V53.92s4.52-6.15,20.2-6.15c16.37,0,20.2,6.15,20.2,6.15Z"/></g><circle class="cls-4" cx="42.64" cy="67.32" r="11.99"/><path class="cls-2" d="M42.64,56.93A10.4,10.4,0,1,0,53,67.32,10.4,10.4,0,0,0,42.64,56.93ZM47.83,68a.59.59,0,0,1-.58.58H43.88v3.36a.59.59,0,0,1-.58.58H42a.59.59,0,0,1-.58-.58V68.57H38a.59.59,0,0,1-.58-.58V66.66a.59.59,0,0,1,.58-.58h3.36V62.71a.59.59,0,0,1,.58-.58H43.3a.59.59,0,0,1,.58.58v3.36h3.36a.59.59,0,0,1,.58.58Z"/></g></g></svg>