<svg xmlns="http://www.w3.org/2000/svg" xmlns:xlink="http://www.w3.org/1999/xlink" width="48" height="48" viewBox="0 0 48 48">
    <defs>
        <path id="a" d="M23 0C10.317 0 0 10.317 0 23s10.317 23 23 23 23-10.317 23-23S35.683 0 23 0z"/>
    </defs>
    <g fill="none" fill-rule="evenodd" transform="translate(1 1)">
        <mask id="b" fill="#fff">
            <use xlink:href="#a"/>
        </mask>
        <use fill-rule="nonzero" stroke="#9DC55C" stroke-width="2" xlink:href="#a"/>
        <g fill="#9DC55C" fill-rule="nonzero" mask="url(#b)">
            <path d="M42.167 47H3.833c-.46 0-.833-.351-.833-.784v-1.15c0-4.331 2.923-8.197 7.275-9.62l4.287-1.403c.313-.1.661-.02.888.21 2.1 2.157 4.782 3.344 7.55 3.344s5.45-1.187 7.548-3.344a.873.873 0 0 1 .889-.21l4.286 1.403C40.077 36.867 43 40.733 43 45.066v1.15c0 .433-.373.784-.833.784zm-37.5-1.567h36.666v-.367c0-3.665-2.473-6.936-6.155-8.14l-3.781-1.237c-2.362 2.245-5.324 3.475-8.397 3.475-3.073 0-6.035-1.23-8.397-3.475l-3.781 1.236c-3.682 1.204-6.155 4.476-6.155 8.141v.367zM20 24h-2a1 1 0 0 1 0-2h2a1 1 0 0 1 0 2zM28 24h-2a1 1 0 0 1 0-2h2a1 1 0 0 1 0 2z"/>
            <path d="M22.5 36c-4.048 0-7.644-3.358-9.138-8.44C12.01 27.474 11 25.69 11 23.343c0-1.912.669-3.45 1.65-4a3.26 3.26 0 0 1-.007-.219C12.643 13.541 17.063 9 22.5 9c5.436 0 9.857 4.541 9.857 10.125 0 .073-.002.147-.006.22.98.55 1.649 2.087 1.649 3.999 0 2.347-1.009 4.13-2.362 4.215C30.144 32.642 26.548 36 22.5 36zm-8.558-10.265c.1 0 .197.017.29.056.241.1.446.297.512.56 1.15 4.762 4.267 7.962 7.756 7.962 3.49 0 6.606-3.2 7.758-7.962a.844.844 0 0 1 .488-.579.806.806 0 0 1 .742.066c.237.01.87-.864.87-2.494 0-1.548-.554-2.434-.788-2.525l-.024.004a.813.813 0 0 1-.664-.245.866.866 0 0 1-.235-.683l.023-.211c.021-.184.044-.368.044-.559 0-4.652-3.685-8.437-8.214-8.437-4.53 0-8.214 3.785-8.214 8.437 0 .19.023.375.042.56l.023.211a.859.859 0 0 1-.235.684.823.823 0 0 1-.688.24c-.232.09-.785.976-.785 2.524 0 1.633.618 2.531.821 2.531.14-.09.31-.14.478-.14z"/>
        </g>
    </g>
</svg>
