<svg xmlns="http://www.w3.org/2000/svg" xmlns:xlink="http://www.w3.org/1999/xlink" width="48" height="48" viewBox="0 0 48 48">
    <defs>
        <path id="a" d="M0 0h48v48H0z"/>
    </defs>
    <g fill="none" fill-rule="evenodd">
        <mask id="b" fill="#fff">
            <use xlink:href="#a"/>
        </mask>
        <path fill="#9DC55C" d="M46.622 26.172l-.137.128c-.127 1.614-.634 5.452-2.639 7.945a7.476 7.476 0 0 1-.158.19c.047.267.09.618.097 1.023 1.7-2.865 2.333-5.762 2.448-6.345l.007-.035c.003-.015.246-1.163.382-2.906m-8.383 9.592c-1.21 1.188-5.127 4.832-9.101 6.337-.11.837-.351 2.21-.827 3.115 1.456.363 2.657.33 2.951.316.55-.2 1.17-.427 1.254-.46.298-.123 1.416-.59 3.262-1.512 1.315-.656 2.831-1.859 4.507-3.575.18-.185.38-.413.594-.679.352-.437.625-.832.655-.876l.03-.046.1-.103c.733-1.037.867-2.147.829-2.968-.771.293-2.19.65-4.254.45M27.135 46.208c-.464.139-1.346.367-2.495.505a20.941 20.941 0 0 0 3.314-.263 11.38 11.38 0 0 1-.819-.242M46.29 24.582c.25-.377.39-.754.42-1.126-.029-2.066-.287-3.999-.766-5.728-1.29-4.655-3.507-6.988-4.699-8.24-.22-.232-.41-.432-.562-.612l-.044-.052c-.09.437-.288.991-.698 1.597 2.727 4.081 3.07 8.753 3.107 10.233.976.778 2.578 2.245 3.242 3.928M27.09 23.07c-1.29 1.095-4.396 3.652-7.263 5.383.013 4.155.763 8.302 1.103 9.97 1.072.796 3.428 2.142 7.48 2.578 3.886-1.363 8.058-5.3 8.964-6.186.184-1.01.462-3.666-.589-7.72-2.206-.991-7.34-3.263-9.695-4.025m4.146-15.503c-1.748.946-5.103 4.496-6.224 5.71.64 1.486 2.051 5.051 2.547 8.597 2.442.803 7.415 3.001 9.568 3.968.699-.529 2.278-1.805 3.635-3.492.377-.47.716-.945 1.008-1.413-.009-.833-.192-6.241-3.339-10.434-1.449-1.02-4.281-2.733-7.195-2.936M13.579 41.91c-1.446-.427-5.867-2.018-8.75-6.103 1.106 2.1 3.298 4.951 6.368 6.947 2.844 1.848 4.88 2.468 5.604 2.646-.997-.653-2.443-1.823-3.222-3.49M28.12 1.66c-.607-.1-1.228-.174-1.794-.229.567.102 1.039.204 1.39.288.12-.019.256-.039.404-.06M11.445 23.425c-1.067.376-3.623 1.415-6.702 3.619-.22 1.274-.538 4.403.818 7.554 2.769 4.324 7.566 5.856 8.63 6.15a19.591 19.591 0 0 0 5.382-2.575c-.39-2.018-1.012-5.837-1.028-9.676-1.333-.733-5.286-3.004-7.1-5.072m4.644-20.376c-.96.431-2.324 1.222-3.389 2.546a7.279 7.279 0 0 0-.973 1.585c.23.5 1.159 2.404 3.382 5.648 1.27-.247 4.44-.712 8.869-.321 1.021-1.114 4.153-4.45 6.208-5.798-.262-.78-.888-2.175-2.31-3.625-1.556-.404-6.761-1.527-11.787-.035m-5.408 4.92c-.994.102-2.903.64-5.292 2.96-.43.619-.734 1.083-.986 1.502l-.129.238c-.052.09-.098.182-.145.277l-.052.104a4.087 4.087 0 0 1-.084.165c-.04.077-.082.155-.117.238-.037.084-.075.164-.112.245-.099.212-.201.431-.29.66-.027.07-.058.14-.088.21a4.143 4.143 0 0 0-.11.27c-.06.168-.122.338-.187.508l-.034.092c-.02.05-.04.1-.056.152l-.08.26-.17.524c-.05.173-.097.351-.145.528-.046.176-.093.351-.144.524-.071.36-.155.724-.227 1.03-.053.33-.11.662-.17.977-.025.116-.039.228-.051.337l-.014.114-.058.433c-.013.098-.028.195-.042.288-.026.166-.05.322-.058.462l-.003.036c.107.55.675 3.017 2.504 4.654 3.003-2.096 5.431-3.111 6.686-3.548.055-1.357.478-4.654 3.027-8.653-2.027-2.956-3.005-4.823-3.373-5.588m-5.362.894c1.645-2.046 3.704-3.71 5.208-4.924l.045-.037c1.234-.996 2.762-1.594 3.878-2.031.445-.175.827-.324 1.023-.437l.065-.033C15.68 1.341 18.787.086 24.151 0h.025c.211.006 5.087.157 7.097 1.248.523.176 4.488 1.532 6.283 2.978 1.898 1.528 3.164 2.706 4.106 3.821.127.15.305.338.512.555 1.269 1.335 3.63 3.819 5.006 8.783.498 1.798.769 3.802.807 5.957H48l-.009.19-.002.012c.036 3.304-.49 5.78-.496 5.804-.169.855-1.144 5.236-4.025 8.82-.29.361-.596.708-.907 1.032-.103.147-.358.506-.68.906-.24.299-.468.56-.68.776-1.776 1.818-3.408 3.106-4.85 3.826-1.834.915-2.953 1.389-3.349 1.55-.122.05-.805.299-1.357.5-.37.171-3.804 1.677-9.46 1.118-.027-.001-3.316-.216-5.383-1.163-.49-.092-2.823-.622-6.303-2.884-3.654-2.376-6.374-6.132-7.361-8.628-.313-.442-1.74-2.6-2.606-6.274-.718-3.047-.54-4.574-.423-5.585.037-.32.066-.57.056-.785V22.5c.01-.153.216-3.558 1.29-6.533 1.084-3.007 1.505-3.824 3.214-6.244.202-.287.421-.577.65-.862" mask="url(#b)"/>
    </g>
</svg>
