<svg xmlns="http://www.w3.org/2000/svg" xmlns:xlink="http://www.w3.org/1999/xlink" width="57" height="41" viewBox="0 0 57 41">
    <defs>
        <path id="a" d="M56.713 6.139L50.82.285l-.002-.002c-.024-.023-.055-.031-.08-.052-.073-.06-.148-.12-.237-.155A.98.98 0 0 0 50.108 0h-15.71c-2.299 0-4.626 1.29-5.896 2.757C27.232 1.291 24.905 0 22.605 0H6.892a.98.98 0 0 0-.708.283L.287 6.141A.972.972 0 0 0 0 6.83v31.24l.002.006a.962.962 0 0 0 .29.687c.003.002.003.002.003.004.03.03.067.041.098.065.069.052.136.107.216.14.12.05.246.074.374.074h21.85c.484.961 1.897 1.953 5.669 1.953 3.772 0 5.185-.992 5.665-1.953H56.02c.128 0 .257-.027.377-.076.018-.008.032-.023.05-.031a.988.988 0 0 0 .267-.176.966.966 0 0 0 .285-.703V6.831a.972.972 0 0 0-.287-.692zM30 4.914C30 4.242 32.364 2 35 2h15v29.14H35c-1.794 0-3.648.807-5 1.86V4.914zM8 2h15c2.636 0 5 2.242 5 2.914V33c-1.352-1.053-3.206-1.86-5-1.86H8V2zM2 6.864L6 3v28.063L2 35V6.864zM32.896 37a.989.989 0 0 0-.976 1c0 .347-1.145.999-3.906.999-2.762 0-3.906-.652-3.906-1 0-.551-.438-1-.977-1H3l3.832-3.998h15.325c2.511 0 4.88 2.327 4.882 2.999V36.019c.002.082.03.156.05.232.013.046.013.098.032.142.033.08.088.144.139.21.025.034.04.074.07.104.063.064.143.108.219.152.031.018.056.046.09.06a.96.96 0 0 0 .76 0 1 1 0 0 0 .595-.92c.002-.672 2.371-2.999 4.882-2.999h15.22L53 36.997H32.896V37zM55 35l-4-3.857V3l4 3.857V35z"/>
    </defs>
    <use fill="#FFF" fill-rule="nonzero" opacity=".87" xlink:href="#a"/>
</svg>
