<svg width="15" height="16" viewBox="0 0 15 16" fill="none" xmlns="http://www.w3.org/2000/svg">
<path fill-rule="evenodd" clip-rule="evenodd" d="M14.9531 6.66721C14.9293 6.45636 14.6835 6.29791 14.4709 6.29791C13.7836 6.29791 13.1737 5.89434 12.9179 5.27021C12.6566 4.63095 12.8251 3.88543 13.3373 3.41556C13.4985 3.26816 13.5181 3.02142 13.3829 2.85003C13.0311 2.40332 12.6313 1.9998 12.1947 1.65009C12.0238 1.51291 11.7729 1.532 11.6247 1.69614C11.1776 2.19124 10.3746 2.37524 9.7541 2.11634C9.10835 1.84471 8.70114 1.19038 8.74099 0.487999C8.75411 0.267379 8.59287 0.075557 8.37291 0.0499398C7.81267 -0.0148567 7.24751 -0.0168658 6.68559 0.0454749C6.46815 0.0694736 6.30691 0.256775 6.31422 0.474605C6.33867 1.17006 5.92655 1.81295 5.28722 2.07481C4.67412 2.32524 3.87673 2.14279 3.43057 1.6521C3.28311 1.49047 3.03637 1.47061 2.86458 1.6045C2.41506 1.95717 2.00624 2.36101 1.65122 2.80404C1.51275 2.97627 1.53312 3.22591 1.69598 3.37409C2.21799 3.84681 2.38654 4.59881 2.11535 5.24543C1.85644 5.86192 1.21627 6.25923 0.483402 6.25923C0.245586 6.25159 0.0761954 6.41121 0.0501869 6.62742C-0.0157832 7.19089 -0.0165645 7.76501 0.0469498 8.33306C0.0705026 8.5448 0.323834 8.70185 0.538767 8.70185C1.19188 8.68517 1.81893 9.08952 2.08198 9.72961C2.34418 10.3689 2.17563 11.1139 1.6626 11.5842C1.50214 11.7316 1.48177 11.978 1.617 12.1493C1.9655 12.5932 2.36539 12.9971 2.80352 13.3497C2.97536 13.4882 3.2254 13.4687 3.37436 13.3045C3.8231 12.8082 4.62607 12.6245 5.24413 12.8839C5.8915 13.1547 6.2987 13.809 6.25885 14.5118C6.24585 14.7325 6.40787 14.9247 6.62694 14.9499C6.91353 14.9833 7.20186 15 7.49096 15C7.76539 15 8.03988 14.9849 8.31431 14.9544C8.53181 14.9304 8.69294 14.7431 8.68563 14.5249C8.66045 13.8298 9.0733 13.1869 9.71179 12.9255C10.329 12.6734 11.1231 12.8579 11.5693 13.3481C11.7176 13.5094 11.9626 13.5289 12.1353 13.3954C12.584 13.0436 12.992 12.6401 13.3487 12.1958C13.4871 12.024 13.4676 11.774 13.3039 11.6258C12.7819 11.1531 12.6125 10.401 12.8837 9.75484C13.1386 9.14655 13.755 8.73813 14.418 8.73813L14.5108 8.74053C14.7258 8.758 14.9237 8.59235 14.9497 8.37285C15.0158 7.80888 15.0166 7.23526 14.9531 6.66721ZM7.51189 10.0175C6.13233 10.0175 5.01017 8.89541 5.01017 7.51587C5.01017 6.1364 6.13233 5.01421 7.51189 5.01421C8.89141 5.01421 10.0136 6.1364 10.0136 7.51587C10.0136 8.89541 8.89141 10.0175 7.51189 10.0175Z" transform="translate(0 0.666656)" fill="#9A9A9A"/>
</svg>
