<svg width="22" height="22" viewBox="0 0 22 22" fill="none" xmlns="http://www.w3.org/2000/svg">
<path d="M10.9998 0C4.93455 0 0 4.9346 0 11C0 17.0653 4.93455 22 10.9998 22C17.0655 22 22 17.0653 22 11C22 4.9346 17.0655 0 10.9998 0ZM10.9998 20.5573C5.73029 20.5573 1.44265 16.2699 1.44265 11C1.44265 5.73006 5.73029 1.44271 10.9998 1.44271C16.2697 1.44271 20.5572 5.73012 20.5572 11C20.5573 16.2699 16.2697 20.5573 10.9998 20.5573Z" fill="#BDBDBD"/>
<path d="M10.9998 7.63452C11.4995 7.63452 11.9054 7.22911 11.9054 6.72911C11.9054 6.2291 11.4995 5.82353 10.9998 5.82353C10.4996 5.82353 10.0947 6.2291 10.0947 6.72911C10.0947 7.22911 10.4996 7.63452 10.9998 7.63452Z" fill="#BDBDBD"/>
<path fill-rule="evenodd" clip-rule="evenodd" d="M11 16.4029C10.5176 16.4029 10.1265 16.0118 10.1265 15.5294V9.68082C10.1265 9.19839 10.5176 8.80729 11 8.80729C11.4825 8.80729 11.8736 9.19839 11.8736 9.68082V15.5294C11.8736 16.0118 11.4825 16.4029 11 16.4029Z" fill="#BDBDBD"/>
</svg>
