<svg xmlns="http://www.w3.org/2000/svg" viewBox="0 0 39.86 32.58"><defs><style>.cls-1{fill:none;stroke:#919191;stroke-linecap:round;stroke-linejoin:round;}</style></defs><title>Asset 6</title><g id="Layer_2" data-name="Layer 2"><g id="Layer_1-2" data-name="Layer 1"><path class="cls-1" d="M39.36,4.24a15.94,15.94,0,0,1-4.58,1.26,8,8,0,0,0,3.51-4.41A16,16,0,0,1,33.22,3a8,8,0,0,0-13.59,7.27A22.64,22.64,0,0,1,3.21,2,8,8,0,0,0,5.67,12.6a7.94,7.94,0,0,1-3.61-1s0,.07,0,.1a8,8,0,0,0,6.4,7.82,8,8,0,0,1-3.6.14A8,8,0,0,0,12.3,25.2a16,16,0,0,1-9.9,3.41A16.21,16.21,0,0,1,.5,28.5a22.57,22.57,0,0,0,12.22,3.58c14.66,0,22.68-12.15,22.68-22.68q0-.52,0-1a16.2,16.2,0,0,0,4-4.13Z"/></g></g></svg>